<?xml version="1.0" encoding="UTF-8"?>
<svg width="51px" height="50px" viewBox="0 0 51 50" version="1.1" xmlns="http://www.w3.org/2000/svg" xmlns:xlink="http://www.w3.org/1999/xlink">
    <!-- Generator: Sketch 52.2 (67145) - http://www.bohemiancoding.com/sketch -->
    <title>huodong</title>
    <desc>Created with Sketch.</desc>
    <defs>
        <linearGradient x1="18.3886719%" y1="14.5996094%" x2="78.2421875%" y2="84.7265625%" id="linearGradient-1">
            <stop stop-color="#FFFFFF" stop-opacity="0.5" offset="0%"></stop>
            <stop stop-color="#000000" offset="100%"></stop>
        </linearGradient>
        <circle id="path-2" cx="25" cy="25" r="25"></circle>
        <linearGradient x1="100%" y1="50%" x2="0%" y2="50%" id="linearGradient-3">
            <stop stop-color="#FF6877" offset="0%"></stop>
            <stop stop-color="#FC494D" offset="100%"></stop>
        </linearGradient>
    </defs>
    <g id="Page-1" stroke="none" stroke-width="1" fill="none" fill-rule="evenodd">
        <g id="首页-" transform="translate(-1564.000000, -383.000000)">
            <g id="huodong" transform="translate(1564.000000, 383.000000)">
                <g id="Oval">
                    <use fill="#FEF4F5" xlink:href="#path-2"></use>
                    <use fill="url(#linearGradient-1)" style="mix-blend-mode: soft-light;" xlink:href="#path-2"></use>
                </g>
                <g id="Group-4" transform="translate(11.611111, 13.722222)" fill="url(#linearGradient-3)">
                    <path d="M26.9995845,4.41969315 C27.4785009,4.90237022 27.460259,5.57379813 27.4329157,6.59002264 C27.4254478,6.8692182 27.4169687,7.18569834 27.4169687,7.5375168 C27.4169687,10.4992566 24.9654831,12.9087112 21.9521954,12.9087112 C21.8777112,12.9084059 21.8034214,12.9051239 21.7292871,12.8985981 C21.1315849,14.4080707 20.1537211,15.8417147 18.9454033,16.9713576 C17.8194266,18.0239508 16.5708135,18.7542632 15.2897228,19.117683 L15.2897228,23.2037611 L15.5495037,23.2037611 C15.5729186,23.2037611 15.5934164,23.2057074 15.6158978,23.2062798 L15.6222766,23.2037611 L17.9768354,23.2037611 C18.3356824,23.2037611 18.6169335,23.7557791 18.6169335,23.7557791 C18.6169335,23.7557791 18.9593667,24.4774287 19.2093071,24.9426655 C19.4285593,25.3509642 19.0785026,25.3331043 19.0785026,25.3331043 L8.372759,25.3331043 C8.372759,25.3331043 8.02270235,25.3509642 8.2419156,24.9426655 C8.49185605,24.4774287 8.83432814,23.7557791 8.83432814,23.7557791 C8.83432814,23.7557791 9.11569589,23.2037611 9.47458175,23.2037611 L12.1546932,23.2037611 L12.1546932,19.1179883 C10.8744972,18.7552936 9.62650634,18.0254391 8.50021851,16.9729986 C7.29081169,15.8427451 6.31310347,14.4097117 5.71602351,12.9003536 C5.64414521,12.9064977 5.56954425,12.9101995 5.49268737,12.9101995 C2.47904967,12.9101995 0.0272917962,10.5008975 0.0272917962,7.53931043 C0.0272917962,7.1889803 0.0189293318,6.8735687 0.0115003518,6.59540353 C-0.015842962,5.57723274 -0.0339292223,4.90462179 0.445881758,4.42148678 C1.04541211,3.81760618 2.0774958,3.78673286 5.00206352,3.78509188 C5.00801449,3.74334229 5.01528789,3.70205066 5.02260018,3.66075903 L5.02260018,1.37384364 C5.02260018,0.615100327 5.64947385,1.59872116e-14 6.42282678,1.59872116e-14 L21.0430205,1.59872116e-14 C21.816179,1.59872116e-14 22.4432471,0.615100327 22.4432471,1.37384364 L22.4432471,3.78493923 C25.1380999,3.78509188 26.3787784,3.79463246 26.9995845,4.41969315 Z M4.9659299,10.6903735 L4.9659299,5.90115454 C4.60264889,5.89878848 4.27904096,5.89386554 3.98262077,5.8892479 C3.67188715,5.88447761 3.4034326,5.8804324 3.17173399,5.8804324 C2.4748101,5.8804324 2.25707486,5.92798265 2.19857651,5.9688545 C2.13509957,6.07067158 2.14085605,6.53545052 2.14571795,6.94584814 C2.14770161,7.10849596 2.14980195,7.28751542 2.14980195,7.48443301 C2.14980195,8.90987211 3.26076506,10.4271298 4.9659299,10.6903735 Z M25.2736107,6.85254126 C25.2834901,6.48923594 25.2948864,6.07780794 25.2400442,5.9812191 C25.0917368,5.8728381 24.2392322,5.8728381 23.9171412,5.8728381 C23.6931827,5.8728381 23.44297,5.87478438 23.1633914,5.87684514 C22.9509848,5.87848612 22.7212699,5.88027975 22.4736243,5.88161543 L22.4803142,10.7017077 C23.9086231,10.4907845 25.2602308,9.42670446 25.2602308,7.6225043 C25.2610087,7.36578635 25.2654038,7.10922105 25.2736107,6.85254126 Z M18.7006924,8.55409129 C19.2115402,8.07601502 19.0524733,7.60394808 18.3455549,7.50544206 L16.8329459,7.29432967 C16.1263549,7.19598076 15.2891457,6.61248576 14.9728948,5.9978836 L14.2970038,4.68317384 C13.9808758,4.06857168 13.4637651,4.06857168 13.147678,4.68317384 L12.4709684,5.9978836 C12.1553725,6.61248576 11.3184498,7.19598076 10.6118588,7.29432967 L9.09896323,7.50544206 C8.39253597,7.60394808 8.23248669,8.07601502 8.74382574,8.55409129 L9.83862834,9.57776052 C10.3498037,10.0557975 10.6692882,10.9998528 10.5488624,11.6749019 L10.2903275,13.1212279 C10.1697789,13.7958449 10.5879128,14.0878281 11.2199642,13.7688618 L12.5733017,13.0862716 C13.2052303,12.7675803 14.2391241,12.7675803 14.8711755,13.0862716 L16.2242264,13.7688618 C16.8567691,14.0878281 17.274248,13.7958449 17.1546408,13.1212279 L16.8956148,11.6749019 C16.7752299,10.9996957 17.0948373,10.0557975 17.6055623,9.57776052 L18.7006924,8.55409129 Z" id="Combined-Shape"></path>
                </g>
            </g>
        </g>
    </g>
</svg>