<?xml version="1.0" encoding="UTF-8"?>
<svg width="50px" height="50px" viewBox="0 0 50 50" version="1.1" xmlns="http://www.w3.org/2000/svg" xmlns:xlink="http://www.w3.org/1999/xlink">
    <!-- Generator: Sketch 52.2 (67145) - http://www.bohemiancoding.com/sketch -->
    <title>huodonglixiang</title>
    <desc>Created with Sketch.</desc>
    <defs>
        <linearGradient x1="18.3886719%" y1="14.5996094%" x2="78.2421875%" y2="84.7265625%" id="linearGradient-1">
            <stop stop-color="#FFFFFF" stop-opacity="0.5" offset="0%"></stop>
            <stop stop-color="#000000" offset="100%"></stop>
        </linearGradient>
        <circle id="path-2" cx="25" cy="25" r="25"></circle>
        <linearGradient x1="100%" y1="50%" x2="0%" y2="50%" id="linearGradient-4">
            <stop stop-color="#FF6877" offset="0%"></stop>
            <stop stop-color="#FC494D" offset="100%"></stop>
        </linearGradient>
    </defs>
    <g id="Page-1" stroke="none" stroke-width="1" fill="none" fill-rule="evenodd">
        <g id="首页-" transform="translate(-1450.000000, -383.000000)">
            <g id="huodonglixiang" transform="translate(1450.000000, 383.000000)">
                <mask id="mask-3" fill="white">
                    <use xlink:href="#path-2"></use>
                </mask>
                <g id="Mask">
                    <use fill="#FEF4F5" xlink:href="#path-2"></use>
                    <use fill="url(#linearGradient-1)" style="mix-blend-mode: soft-light;" xlink:href="#path-2"></use>
                </g>
                <path d="M37.9532722,20.5048804 C38.0561899,20.9769326 37.8087981,21.4699283 37.3470478,21.6628171 L25.9412186,26.4032627 C25.6924668,26.5165693 25.3994277,26.5303143 25.1275921,26.4167593 L13.2958914,21.502545 C12.8091567,21.2991385 12.5606102,20.7621325 12.7097118,20.2679228 C12.7895292,19.9737678 12.9997776,19.7186389 13.3037111,19.5922695 L24.7062638,14.8564226 C24.838616,14.8011263 24.9759946,14.7760114 25.1108408,14.7778741 C25.2456717,14.7760114 25.3830279,14.8011263 25.5153472,14.8564226 L37.3445274,19.7731573 C37.6686498,19.9063563 37.8861778,20.1869474 37.9532722,20.5048804 Z M25.9431704,31.107149 C25.6940005,31.2212776 25.400139,31.2353612 25.1275921,31.1214243 L13.2958914,26.2073392 C12.7763642,25.9902287 12.5282009,25.3930858 12.7453115,24.8734294 C12.9625189,24.3539022 13.5595649,24.1057389 14.0792213,24.3228494 L25.5137178,29.0755879 L36.5638472,24.4831539 C37.0833744,24.2659141 37.6805172,24.5140773 37.897757,25.0337338 C38.1148676,25.553261 37.8667043,26.1504039 37.3470478,26.3676437 L25.9431704,31.107149 Z M25.9431704,35.5017068 C25.6940005,35.6158355 25.400139,35.629919 25.1275921,35.5159821 L13.2958914,30.6018971 C12.7763642,30.3847865 12.5282009,29.7876437 12.7453115,29.2679872 C12.9625189,28.74846 13.5595649,28.5002967 14.0792213,28.7174073 L25.5137178,33.4701457 L36.5638472,28.8777117 C37.0833744,28.6604719 37.6805172,28.9086351 37.897757,29.4282916 C38.1148676,29.9478188 37.8667043,30.5449617 37.3470478,30.7622015 L25.9431704,35.5017068 Z" id="Combined-Shape" fill="url(#linearGradient-4)" mask="url(#mask-3)"></path>
            </g>
        </g>
    </g>
</svg>