<?xml version="1.0" encoding="UTF-8"?>
<svg width="50px" height="50px" viewBox="0 0 50 50" version="1.1" xmlns="http://www.w3.org/2000/svg" xmlns:xlink="http://www.w3.org/1999/xlink">
    <!-- Generator: Sketch 52.2 (67145) - http://www.bohemiancoding.com/sketch -->
    <title>lixiangshenpi</title>
    <desc>Created with Sketch.</desc>
    <defs>
        <linearGradient x1="18.3886719%" y1="14.5996094%" x2="78.2421875%" y2="84.7265625%" id="linearGradient-1">
            <stop stop-color="#FFFFFF" stop-opacity="0.5" offset="0%"></stop>
            <stop stop-color="#000000" offset="100%"></stop>
        </linearGradient>
        <circle id="path-2" cx="25" cy="25" r="25"></circle>
        <linearGradient x1="57.3924276%" y1="61.0863829%" x2="0%" y2="50%" id="linearGradient-3">
            <stop stop-color="#FF6877" offset="0%"></stop>
            <stop stop-color="#FC494D" offset="100%"></stop>
        </linearGradient>
    </defs>
    <g id="Page-1" stroke="none" stroke-width="1" fill="none" fill-rule="evenodd">
        <g id="首页-" transform="translate(-1678.000000, -512.000000)">
            <g id="lixiangshenpi" transform="translate(1678.000000, 512.000000)">
                <g id="Oval">
                    <use fill="#FEF4F5" xlink:href="#path-2"></use>
                    <use fill="url(#linearGradient-1)" style="mix-blend-mode: soft-light;" xlink:href="#path-2"></use>
                </g>
                <path d="M24.8096047,14 C24.6223982,14 24.2469879,14.150096 23.7578576,15.1154188 C22.5815511,17.2131936 20.72337,20.6367421 20.72337,20.6367421 C20.72337,20.6367421 17.3261486,21.2957316 15.1346806,21.7096176 C14.0596541,21.8863524 13.7084418,22.8427781 14.2540517,23.5160187 C15.7959528,25.3694774 18.5238973,28.4298193 18.5238973,28.4298193 C18.5238973,28.4298193 18.0786488,31.7904056 17.8277979,34.0844154 C17.7462805,34.9653601 18.2113179,35.4706842 18.8599661,35.4706842 C19.0713444,35.4706842 19.3025377,35.4165667 19.5407909,35.3046049 C21.3801017,34.3933995 24.1779895,33.0000446 24.8114418,32.6856277 C25.4340549,33.0035352 28.2042541,34.419251 30.0229625,35.3331071 C30.2585387,35.4458825 30.4878949,35.5 30.6966224,35.5 C31.3380795,35.5 31.7976841,34.9955945 31.7161667,34.1128126 C31.4688852,31.8153385 31.0281508,28.4493981 31.0281508,28.4493981 C31.0281508,28.4493981 33.7248373,25.3863005 35.248813,23.5301648 C35.7880716,22.8552708 35.4413472,21.8978478 34.3788134,21.7202731 C32.212567,21.3054685 28.8538209,20.6456655 28.8538209,20.6456655 C28.8538209,20.6456655 27.0171609,17.2176028 25.8542919,15.117256 C25.4430833,14.3418956 25.1285354,14.0933015 24.9296499,14.0249066 C24.9108846,14.0150647 24.8705983,14 24.8096047,14 Z" id="Fill-1" fill="url(#linearGradient-3)"></path>
            </g>
        </g>
    </g>
</svg>