<?xml version="1.0" encoding="UTF-8"?>
<svg width="443px" height="562px" viewBox="0 0 443 562" version="1.1" xmlns="http://www.w3.org/2000/svg" xmlns:xlink="http://www.w3.org/1999/xlink">
    <!-- Generator: Sketch 52.2 (67145) - http://www.bohemiancoding.com/sketch -->
    <title>Group 4</title>
    <desc>Created with Sketch.</desc>
    <defs>
        <path d="M23,0 L443,0 L443,562 L23,562 C10.2974508,562 1.55561363e-15,551.702549 0,539 L0,23 C-1.55561363e-15,10.2974508 10.2974508,2.33342044e-15 23,0 Z" id="path-1"></path>
        <linearGradient x1="50%" y1="0%" x2="50%" y2="99.4193412%" id="linearGradient-3">
            <stop stop-color="#DC3957" offset="0%"></stop>
            <stop stop-color="#DC3957" stop-opacity="0" offset="100%"></stop>
        </linearGradient>
        <linearGradient x1="50%" y1="0%" x2="50%" y2="100%" id="linearGradient-4">
            <stop stop-color="#970923" offset="0%"></stop>
            <stop stop-color="#AD0F2C" stop-opacity="0" offset="100%"></stop>
        </linearGradient>
        <linearGradient x1="50%" y1="0%" x2="50%" y2="100%" id="linearGradient-5">
            <stop stop-color="#AD0F2C" offset="0%"></stop>
            <stop stop-color="#AD0F2C" stop-opacity="0" offset="100%"></stop>
        </linearGradient>
        <linearGradient x1="50%" y1="0%" x2="50%" y2="100%" id="linearGradient-6">
            <stop stop-color="#980B24" stop-opacity="0" offset="0%"></stop>
            <stop stop-color="#980B24" offset="100%"></stop>
        </linearGradient>
        <polygon id="path-7" points="4.46735395e-05 0.153691429 86.6121649 0.153691429 86.6121649 79.0361446 4.46735395e-05 79.0361446"></polygon>
        <polygon id="path-9" points="0 26.7422 106.911 26.7422 106.911 0.0002 0 0.0002"></polygon>
    </defs>
    <g id="登录界面" stroke="none" stroke-width="1" fill="none" fill-rule="evenodd">
        <g transform="translate(-459.000000, -317.000000)" id="Group-4">
            <g transform="translate(459.000000, 317.000000)">
                <g id="Group-3">
                    <mask id="mask-2" fill="white">
                        <use xlink:href="#path-1"></use>
                    </mask>
                    <use id="Rectangle-Copy" fill="#C11333" xlink:href="#path-1"></use>
                    <path d="M58.0959502,160.212727 C61.1736305,152.571736 70.7506088,147 82.0882353,147 C93.4339618,147 103.016523,152.5797 106.087107,160.229107 C111.630552,161.085329 115.823529,165.068503 115.823529,169.852941 C115.823529,175.262083 110.464115,179.647059 103.852941,179.647059 C102.247633,179.647059 100.71613,179.388519 99.3172376,178.919556 C94.8296504,182.068164 88.7641695,184 82.0882353,184 C74.5570406,184 67.8027296,181.541479 63.2142306,177.651035 C61.2031656,178.903491 58.6930083,179.647059 55.9705882,179.647059 C49.3594149,179.647059 44,175.262083 44,169.852941 C44,164.443799 49.3594149,160.058824 55.9705882,160.058824 C56.6959174,160.058824 57.4061792,160.111605 58.0959493,160.212729 Z" id="Combined-Shape-Copy-6" fill="url(#linearGradient-3)" opacity="0.85781715" mask="url(#mask-2)"></path>
                    <path d="M360.086787,81.0963961 C365.19675,70.5593415 379.122279,63 395.5,63 C411.92888,63 425.890224,70.6066413 430.96084,81.1952265 C439.493239,82.3327244 446,88.3042466 446,95.5 C446,103.508129 437.941125,110 428,110 C425.869671,110 423.82578,109.701879 421.929109,109.154603 C415.149962,114.003771 405.810958,117 395.5,117 C384.308548,117 374.262135,113.470202 367.391184,107.872509 C364.657177,109.222032 361.44137,110 358,110 C348.058875,110 340,103.508129 340,95.5 C340,87.4918711 348.058875,81 358,81 C358.705821,81 359.402154,81.0327256 360.086787,81.0963961 Z" id="Combined-Shape-Copy-6" fill="url(#linearGradient-3)" opacity="0.85781715" mask="url(#mask-2)"></path>
                    <g id="编组" mask="url(#mask-2)">
                        <g transform="translate(1.000000, 195.000000)">
                            <rect id="Rectangle" fill="url(#linearGradient-4)" x="406" y="115" width="36" height="275"></rect>
                            <rect id="Rectangle-Copy-18" fill="url(#linearGradient-5)" transform="translate(355.500000, 249.000000) scale(-1, 1) translate(-355.500000, -249.000000) " x="303" y="115" width="105" height="268"></rect>
                            <g id="Group-17" stroke-width="1" fill="none" transform="translate(162.000000, 0.000000)">
                                <g id="Group-16" transform="translate(0.000000, 0.847156)">
                                    <polygon id="Rectangle" fill="url(#linearGradient-5)" points="2.13162821e-14 43.010475 25.8825076 43.010475 25.8825076 0 94.9025277 0 94.9025277 491.152844 2.71860835e-12 491.152844"></polygon>
                                    <path d="M8.62750252,48.745205 L17.255005,48.745205 L17.255005,186.378725 L8.62750252,186.378725 L8.62750252,48.745205 Z M25.8825076,48.745205 L34.5100101,48.745205 L34.5100101,186.378725 L25.8825076,186.378725 L25.8825076,48.745205 Z M43.1375126,48.745205 L51.7650151,48.745205 L51.7650151,186.378725 L43.1375126,186.378725 L43.1375126,48.745205 Z M60.3925177,48.745205 L69.0200202,48.745205 L69.0200202,186.378725 L60.3925177,186.378725 L60.3925177,48.745205 Z M77.6475227,48.745205 L86.2750252,48.745205 L86.2750252,186.378725 L77.6475227,186.378725 L77.6475227,48.745205 Z" id="Combined-Shape" fill="#980B24"></path>
                                    <path d="M8.62750252,194.98082 L17.255005,194.98082 L17.255005,203.582915 L8.62750252,203.582915 L8.62750252,194.98082 Z M25.8825076,194.98082 L34.5100101,194.98082 L34.5100101,203.582915 L25.8825076,203.582915 L25.8825076,194.98082 Z M43.1375126,194.98082 L51.7650151,194.98082 L51.7650151,203.582915 L43.1375126,203.582915 L43.1375126,194.98082 Z M60.3925177,194.98082 L69.0200202,194.98082 L69.0200202,203.582915 L60.3925177,203.582915 L60.3925177,194.98082 Z M77.6475227,194.98082 L86.2750252,194.98082 L86.2750252,203.582915 L77.6475227,203.582915 L77.6475227,194.98082 Z" id="Combined-Shape-Copy" fill="#980B24"></path>
                                    <path d="M8.62750252,212.18501 L17.255005,212.18501 L17.255005,220.787105 L8.62750252,220.787105 L8.62750252,212.18501 Z M25.8825076,212.18501 L34.5100101,212.18501 L34.5100101,220.787105 L25.8825076,220.787105 L25.8825076,212.18501 Z M43.1375126,212.18501 L51.7650151,212.18501 L51.7650151,220.787105 L43.1375126,220.787105 L43.1375126,212.18501 Z M60.3925177,212.18501 L69.0200202,212.18501 L69.0200202,220.787105 L60.3925177,220.787105 L60.3925177,212.18501 Z M77.6475227,212.18501 L86.2750252,212.18501 L86.2750252,220.787105 L77.6475227,220.787105 L77.6475227,212.18501 Z" id="Combined-Shape-Copy-2" fill="#980B24"></path>
                                    <path d="M8.62750252,229.3892 L17.255005,229.3892 L17.255005,237.991295 L8.62750252,237.991295 L8.62750252,229.3892 Z M25.8825076,229.3892 L34.5100101,229.3892 L34.5100101,237.991295 L25.8825076,237.991295 L25.8825076,229.3892 Z M43.1375126,229.3892 L51.7650151,229.3892 L51.7650151,237.991295 L43.1375126,237.991295 L43.1375126,229.3892 Z M60.3925177,229.3892 L69.0200202,229.3892 L69.0200202,237.991295 L60.3925177,237.991295 L60.3925177,229.3892 Z M77.6475227,229.3892 L86.2750252,229.3892 L86.2750252,237.991295 L77.6475227,237.991295 L77.6475227,229.3892 Z" id="Combined-Shape-Copy-3" fill="#980B24"></path>
                                    <path d="M8.62750252,246.59339 L17.255005,246.59339 L17.255005,255.195485 L8.62750252,255.195485 L8.62750252,246.59339 Z M25.8825076,246.59339 L34.5100101,246.59339 L34.5100101,255.195485 L25.8825076,255.195485 L25.8825076,246.59339 Z M43.1375126,246.59339 L51.7650151,246.59339 L51.7650151,255.195485 L43.1375126,255.195485 L43.1375126,246.59339 Z M60.3925177,246.59339 L69.0200202,246.59339 L69.0200202,255.195485 L60.3925177,255.195485 L60.3925177,246.59339 Z M77.6475227,246.59339 L86.2750252,246.59339 L86.2750252,255.195485 L77.6475227,255.195485 L77.6475227,246.59339 Z" id="Combined-Shape-Copy-4" fill="#980B24"></path>
                                </g>
                                <g id="Group-16-Copy" transform="translate(142.305055, 249.347156) scale(-1, 1) translate(-142.305055, -249.347156) translate(94.805055, 0.847156)">
                                    <rect id="Rectangle" fill="url(#linearGradient-4)" x="-2.06057393e-13" y="0" width="94.9025277" height="496.59536"></rect>
                                    <path d="M8.62750252,48.6952159 L17.255005,48.6952159 L17.255005,186.18759 L8.62750252,186.18759 L8.62750252,48.6952159 Z M25.8825076,48.6952159 L34.5100101,48.6952159 L34.5100101,186.18759 L25.8825076,186.18759 L25.8825076,48.6952159 Z M43.1375126,48.6952159 L51.7650151,48.6952159 L51.7650151,186.18759 L43.1375126,186.18759 L43.1375126,48.6952159 Z M60.3925177,48.6952159 L69.0200202,48.6952159 L69.0200202,186.18759 L60.3925177,186.18759 L60.3925177,48.6952159 Z M77.6475227,48.6952159 L86.2750252,48.6952159 L86.2750252,186.18759 L77.6475227,186.18759 L77.6475227,48.6952159 Z" id="Combined-Shape" fill="#B7213C"></path>
                                </g>
                            </g>
                            <g id="Group-19" stroke-width="1" fill="none" transform="translate(0.000000, 89.000000)">
                                <polygon id="Rectangle" fill="url(#linearGradient-4)" points="105 0.845310518 140 0.845310518 140 304.5 105 304.5"></polygon>
                                <polygon id="Rectangle-Copy-18" fill="url(#linearGradient-5)" transform="translate(52.500000, 143.648545) scale(-1, 1) translate(-52.500000, -143.648545) " points="-4.29167812e-12 0.845310518 105 0.845310518 105 286.451779 -4.29167812e-12 286.451779"></polygon>
                                <path d="M69.4230769,25.9062004 L92.5,25.9062004 L92.5,88.5584253 L69.4230769,88.5584253 L69.4230769,25.9062004 Z M52.1153846,25.9062004 L63.6538462,25.9062004 L63.6538462,37.2975141 L52.1153846,37.2975141 L52.1153846,25.9062004 Z M34.8076923,25.9062004 L46.3461538,25.9062004 L46.3461538,37.2975141 L34.8076923,37.2975141 L34.8076923,25.9062004 Z M17.5,25.9062004 L29.0384615,25.9062004 L29.0384615,37.2975141 L17.5,37.2975141 L17.5,25.9062004 Z M52.1153846,42.9931709 L63.6538462,42.9931709 L63.6538462,54.3844845 L52.1153846,54.3844845 L52.1153846,42.9931709 Z M34.8076923,42.9931709 L46.3461538,42.9931709 L46.3461538,54.3844845 L34.8076923,54.3844845 L34.8076923,42.9931709 Z M17.5,42.9931709 L29.0384615,42.9931709 L29.0384615,54.3844845 L17.5,54.3844845 L17.5,42.9931709 Z M52.1153846,60.0801413 L63.6538462,60.0801413 L63.6538462,71.4714549 L52.1153846,71.4714549 L52.1153846,60.0801413 Z M34.8076923,60.0801413 L46.3461538,60.0801413 L46.3461538,71.4714549 L34.8076923,71.4714549 L34.8076923,60.0801413 Z M17.5,60.0801413 L29.0384615,60.0801413 L29.0384615,71.4714549 L17.5,71.4714549 L17.5,60.0801413 Z M52.1153846,77.1671117 L63.6538462,77.1671117 L63.6538462,88.5584253 L52.1153846,88.5584253 L52.1153846,77.1671117 Z M34.8076923,77.1671117 L46.3461538,77.1671117 L46.3461538,88.5584253 L34.8076923,88.5584253 L34.8076923,77.1671117 Z M17.5,77.1671117 L29.0384615,77.1671117 L29.0384615,88.5584253 L17.5,88.5584253 L17.5,77.1671117 Z" id="Combined-Shape" fill="#980B24"></path>
                                <path d="M69.4230769,106.101048 L92.5,106.101048 L92.5,168.753273 L69.4230769,168.753273 L69.4230769,106.101048 Z M52.1153846,106.101048 L63.6538462,106.101048 L63.6538462,117.492362 L52.1153846,117.492362 L52.1153846,106.101048 Z M34.8076923,106.101048 L46.3461538,106.101048 L46.3461538,117.492362 L34.8076923,117.492362 L34.8076923,106.101048 Z M17.5,106.101048 L29.0384615,106.101048 L29.0384615,117.492362 L17.5,117.492362 L17.5,106.101048 Z M52.1153846,123.188019 L63.6538462,123.188019 L63.6538462,134.579332 L52.1153846,134.579332 L52.1153846,123.188019 Z M34.8076923,123.188019 L46.3461538,123.188019 L46.3461538,134.579332 L34.8076923,134.579332 L34.8076923,123.188019 Z M17.5,123.188019 L29.0384615,123.188019 L29.0384615,134.579332 L17.5,134.579332 L17.5,123.188019 Z M52.1153846,140.274989 L63.6538462,140.274989 L63.6538462,151.666303 L52.1153846,151.666303 L52.1153846,140.274989 Z M34.8076923,140.274989 L46.3461538,140.274989 L46.3461538,151.666303 L34.8076923,151.666303 L34.8076923,140.274989 Z M17.5,140.274989 L29.0384615,140.274989 L29.0384615,151.666303 L17.5,151.666303 L17.5,140.274989 Z M52.1153846,157.361959 L63.6538462,157.361959 L63.6538462,168.753273 L52.1153846,168.753273 L52.1153846,157.361959 Z M34.8076923,157.361959 L46.3461538,157.361959 L46.3461538,168.753273 L34.8076923,168.753273 L34.8076923,157.361959 Z M17.5,157.361959 L29.0384615,157.361959 L29.0384615,168.753273 L17.5,168.753273 L17.5,157.361959 Z" id="Combined-Shape-Copy-5" fill="url(#linearGradient-6)" transform="translate(55.000000, 137.427161) scale(-1, -1) translate(-55.000000, -137.427161) "></path>
                            </g>
                        </g>
                    </g>
                </g>
                <g id="Group" transform="translate(169.000000, 35.000000)">
                    <g id="分组" transform="translate(10.000000, 0.000000)">
                        <path d="M43.3333333,30.8295494 C40.2295813,30.8295494 37.3375945,32.5864407 35.7855046,35.4151123 C34.2334147,38.2433337 34.2338425,41.7566663 35.7855046,44.5853379 C37.3375945,47.4135593 40.2295813,49.1704506 43.3333333,49.1704506 C46.4366576,49.1704506 49.3290721,47.4135593 50.8811621,44.5853379 C52.4328242,41.7566663 52.4328242,38.2433337 50.8811621,35.4151123 C49.3290721,32.5868908 46.4370854,30.8295494 43.3333333,30.8295494 M43.3333333,53.3333333 C38.8203795,53.3333333 34.6154478,50.7792464 32.3591848,46.6667792 C30.102494,42.554312 30.102494,37.445688 32.3591848,33.3332208 C34.6154478,29.2212038 38.8203795,26.6666667 43.3333333,26.6666667 C47.8462872,26.6666667 52.0512188,29.2212038 54.3074819,33.3332208 C56.5641727,37.445688 56.5641727,42.554312 54.3074819,46.6667792 C52.050791,50.7792464 47.8458594,53.3333333 43.3333333,53.3333333" id="Fill-1" fill="#FFF000"></path>
                        <g>
                            <mask id="mask-8" fill="white">
                                <use xlink:href="#path-7"></use>
                            </mask>
                            <g id="Clip-4"></g>
                            <path d="M27.2681031,4.33041294 C24.7386873,4.33041294 22.3812646,5.70609349 21.1165567,7.92091208 L5.07830928,36.004035 C3.81404811,38.2193052 3.81404811,40.9706663 5.07830928,43.1854849 L21.1165567,71.2681561 C22.3812646,73.4834264 24.7386873,74.8595586 27.2681031,74.8595586 L59.3441512,74.8595586 C61.8740137,74.8595586 64.2309897,73.4834264 65.4956976,71.2681561 L81.5334983,43.1854849 C82.7982062,40.9706663 82.7982062,38.2193052 81.5334983,36.004035 L65.4956976,7.92091208 C64.2309897,5.70609349 61.873567,4.33041294 59.3441512,4.33041294 L27.2681031,4.33041294 Z M59.3441512,79.0362801 L27.2681031,79.0362801 C23.2671409,79.0362801 19.539134,76.8603021 17.5382062,73.3569685 L1.5004055,45.2738456 C-0.500075601,41.7709637 -0.500075601,37.4190078 1.5004055,33.9152226 L17.5382062,5.83255133 C19.539134,2.32921776 23.2671409,0.153691429 27.2681031,0.153691429 L59.3441512,0.153691429 C63.3451134,0.153691429 67.073567,2.3296694 69.0740481,5.83255133 L85.1118488,33.9152226 C87.1123299,37.4190078 87.1123299,41.7709637 85.1118488,45.2738456 L69.0740481,73.3569685 C67.073567,76.8603021 63.3451134,79.0362801 59.3441512,79.0362801 Z" id="Fill-3" fill="#E95515" mask="url(#mask-8)"></path>
                        </g>
                        <path d="M42.6668923,10.8210833 C40.4788174,10.8210833 38.2907424,11.3823908 36.3395698,12.5045562 L22.5008645,20.4612803 C18.598068,22.7056113 16.173542,26.8877788 16.173542,31.3764407 L16.173542,47.2898889 C16.173542,51.7785509 18.598068,55.9611677 22.5008645,58.2050493 L36.3391186,66.1622228 C40.241915,68.4065538 45.0914183,68.4070032 48.994666,66.1622228 L62.8324689,58.2050493 C66.7357166,55.9611677 69.1602426,51.7785509 69.1602426,47.2898889 L69.1602426,31.3764407 C69.1602426,26.8877788 66.7357166,22.7056113 62.8324689,20.4612803 L48.9942148,12.5045562 C47.0430422,11.3823908 44.8549672,10.8210833 42.6668923,10.8210833 M42.6668923,72 C39.7568293,72 36.8476689,71.2544363 34.2525732,69.7619607 L20.4143191,61.8047872 C15.2241277,58.8207348 12,53.2588925 12,47.2898889 L12,31.3764407 C12,25.4078865 15.2241277,19.8460442 20.4143191,16.8615424 L34.2525732,8.90436892 C39.4423133,5.92076592 45.89102,5.92076592 51.0812114,8.90436892 L64.9194655,16.8615424 C70.1092056,19.8460442 73.3333333,25.4078865 73.3333333,31.3764407 L73.3333333,47.2898889 C73.3333333,53.2588925 70.1092056,58.8207348 64.9190142,61.8047872 L51.0812114,69.7619607 C48.486567,71.2539869 45.5760528,72 42.6668923,72" id="Fill-5" fill="#F29700"></path>
                        <path d="M40.6756079,21.4237234 C35.7544798,21.4237234 31.1691002,23.9974668 28.7087636,28.1409329 L26.0509813,32.6161238 C23.5906447,36.7595899 23.5906447,41.9070768 26.0509813,46.0501005 L28.7087636,50.5252915 C31.1691002,54.6691998 35.7549347,57.2429433 40.6756079,57.2429433 L45.9911725,57.2429433 C50.9118457,57.2429433 55.4972252,54.6691998 57.9580168,50.5252915 L60.6157991,46.0501005 C63.0761357,41.9070768 63.0761357,36.7595899 60.6157991,32.6161238 L57.9580168,28.1409329 C55.4972252,23.9974668 50.9118457,21.4237234 45.9911725,21.4237234 L40.6756079,21.4237234 Z M45.9911725,61.3333333 L40.6756079,61.3333333 C34.2563495,61.3333333 28.2747471,57.9758343 25.0651179,52.5709288 L22.4068807,48.0957378 C19.1977064,42.69039 19.1977064,35.9758343 22.4068807,30.5709288 L25.0651179,26.0952955 C28.2742922,20.69039 34.2563495,17.3333333 40.6756079,17.3333333 L45.9911725,17.3333333 C52.4104309,17.3333333 58.3920333,20.69039 61.6016625,26.0952955 L64.2594448,30.5709288 C67.469074,35.9758343 67.469074,42.69039 64.2594448,48.0957378 L61.6016625,52.5709288 C58.3920333,57.9758343 52.4104309,61.3333333 45.9911725,61.3333333 Z" id="Fill-7" fill="#F7B62D"></path>
                    </g>
                    <g id="Group-24" transform="translate(0.000000, 93.000000)">
                        <g id="Group-23">
                            <path d="M58.8074,16.5156 L76.3524,16.5156 C76.4744,16.5156 76.5724,16.4166 76.5724,16.2956 L76.5724,6.9556 L59.0274,6.9556 C58.9064,6.9556 58.8074,7.0546 58.8074,7.1756 L58.8074,16.5156 Z M76.3524,18.8326 L56.4904,18.8326 L56.4904,7.1756 C56.4904,5.7766 57.6284,4.6386 59.0274,4.6386 L78.8904,4.6386 L78.8904,16.2956 C78.8904,17.6946 77.7514,18.8326 76.3524,18.8326 Z" id="Fill-1" fill="#FEFEFE"></path>
                            <mask id="mask-10" fill="white">
                                <use xlink:href="#path-9"></use>
                            </mask>
                            <g id="Clip-4"></g>
                            <polygon id="Fill-3" fill="#FEFEFE" mask="url(#mask-10)" points="66.532 25.2222 68.849 25.2222 68.849 0.0002 66.532 0.0002"></polygon>
                            <path d="M85.902,22.8994 L104.374,22.8994 C104.495,22.8994 104.594,22.8004 104.594,22.6794 L104.594,2.3194 L86.122,2.3194 C86.001,2.3194 85.902,2.4184 85.902,2.5394 L85.902,22.8994 Z M104.374,25.2164 L83.585,25.2164 L83.585,2.5394 C83.585,1.1404 84.723,0.0024 86.122,0.0024 L106.912,0.0024 L106.912,22.6794 C106.912,24.0784 105.773,25.2164 104.374,25.2164 Z" id="Fill-5" fill="#FEFEFE" mask="url(#mask-10)"></path>
                            <polygon id="Fill-6" fill="#FEFEFE" mask="url(#mask-10)" points="88.3 7.4592 102.196 7.4592 102.196 5.1422 88.3 5.1422"></polygon>
                            <polygon id="Fill-7" fill="#FEFEFE" mask="url(#mask-10)" points="88.3 13.7702 102.196 13.7702 102.196 11.4532 88.3 11.4532"></polygon>
                            <path d="M99.3021,20.0805 L88.3001,20.0805 L88.3001,17.7635 L99.3021,17.7635 C100.3771,17.7635 101.2811,16.6885 101.2901,16.6785 L103.1021,18.1225 C102.9421,18.3225 101.4791,20.0805 99.3021,20.0805" id="Fill-8" fill="#FEFEFE" mask="url(#mask-10)"></path>
                            <polygon id="Fill-9" fill="#FEFEFE" mask="url(#mask-10)" points="94.055 18.9222 96.372 18.9222 96.372 6.3012 94.055 6.3012"></polygon>
                            <path d="M50.8399,11.3706 L45.2599,2.4236 C45.2199,2.3586 45.1499,2.3196 45.0739,2.3196 L35.1909,2.3196 C35.1139,2.3196 35.0439,2.3586 35.0039,2.4226 L29.4239,11.3706 L27.4579,10.1446 L33.0379,1.1966 C33.5039,0.4486 34.3089,0.0016 35.1909,0.0016 L45.0739,0.0016 C45.9549,0.0016 46.7599,0.4486 47.2269,1.1966 L52.8059,10.1446 L50.8399,11.3706 Z" id="Fill-10" fill="#FEFEFE" mask="url(#mask-10)"></path>
                            <path d="M33.0085,22.8994 L47.0355,22.8994 C47.1565,22.8994 47.2555,22.8004 47.2555,22.6794 L47.2555,15.6804 L33.2285,15.6804 C33.1075,15.6804 33.0085,15.7794 33.0085,15.9004 L33.0085,22.8994 Z M47.0355,25.2164 L30.6915,25.2164 L30.6915,15.9004 C30.6915,14.5024 31.8295,13.3634 33.2285,13.3634 L49.5725,13.3634 L49.5725,22.6794 C49.5725,24.0784 48.4345,25.2164 47.0355,25.2164 Z" id="Fill-11" fill="#FEFEFE" mask="url(#mask-10)"></path>
                            <polygon id="Fill-12" fill="#FEFEFE" mask="url(#mask-10)" points="33.38 10.4822 46.885 10.4822 46.885 8.1652 33.38 8.1652"></polygon>
                            <path d="M3.5867,8.165 L9.3777,8.165 C9.4997,8.165 9.5977,8.066 9.5977,7.945 L9.5977,6.294 L3.8067,6.294 C3.6857,6.294 3.5867,6.393 3.5867,6.514 L3.5867,8.165 Z M9.3777,10.482 L1.2697,10.482 L1.2697,6.514 C1.2697,5.115 2.4077,3.977 3.8067,3.977 L11.9157,3.977 L11.9157,7.945 C11.9157,9.344 10.7767,10.482 9.3777,10.482 Z" id="Fill-13" fill="#FEFEFE" mask="url(#mask-10)"></path>
                            <polygon id="Fill-14" fill="#FEFEFE" mask="url(#mask-10)" points="0.012 2.8202 13.164 2.8202 13.164 0.5032 0.012 0.5032"></polygon>
                            <path d="M10.634,26.7422 L9.143,24.9692 L9.138,24.9722 C9.155,24.9572 10.868,23.4602 10.868,21.2652 L10.868,13.9542 L2.538,13.9542 C2.416,13.9542 2.317,14.0532 2.317,14.1752 L2.317,25.2222 L0,25.2222 L0,14.1752 C0,12.7752 1.138,11.6372 2.538,11.6372 L13.185,11.6372 L13.185,21.2652 C13.185,24.5592 10.738,26.6552 10.634,26.7422" id="Fill-15" fill="#FEFEFE" mask="url(#mask-10)"></path>
                            <polygon id="Fill-16" fill="#FEFEFE" mask="url(#mask-10)" points="3.145 20.3302 10.04 20.3302 10.04 18.0132 3.145 18.0132"></polygon>
                            <polygon id="Fill-17" fill="#FEFEFE" mask="url(#mask-10)" points="5.434 25.2222 7.751 25.2222 7.751 18.8682 5.434 18.8682"></polygon>
                            <polygon id="Fill-18" fill="#FEFEFE" mask="url(#mask-10)" points="17.659 23.0832 19.976 23.0832 19.976 0.0002 17.659 0.0002"></polygon>
                            <path d="M21.4483,25.2168 L13.7833,25.2168 L13.7833,22.8998 L21.4483,22.8998 C21.7853,22.8998 22.1073,22.7728 22.3533,22.5418 L23.5633,21.4068 L25.1473,23.0978 L23.9383,24.2318 C23.2613,24.8668 22.3763,25.2168 21.4483,25.2168" id="Fill-19" fill="#FEFEFE" mask="url(#mask-10)"></path>
                            <path d="M16.087,16.458 L21.569,16.458 C21.69,16.458 21.789,16.359 21.789,16.238 L21.789,6.294 L16.307,6.294 C16.186,6.294 16.087,6.393 16.087,6.514 L16.087,16.458 Z M21.569,18.775 L13.77,18.775 L13.77,6.514 C13.77,5.115 14.908,3.977 16.307,3.977 L24.106,3.977 L24.106,16.238 C24.106,17.637 22.968,18.775 21.569,18.775 Z" id="Fill-20" fill="#FEFEFE" mask="url(#mask-10)"></path>
                            <polygon id="Fill-21" fill="#FEFEFE" mask="url(#mask-10)" points="3.812 18.8682 6.129 18.8682 6.129 15.5382 3.812 15.5382"></polygon>
                            <polygon id="Fill-22" fill="#FEFEFE" mask="url(#mask-10)" points="7.056 18.8682 9.373 18.8682 9.373 15.5382 7.056 15.5382"></polygon>
                        </g>
                    </g>
                </g>
            </g>
        </g>
    </g>
</svg>