<?xml version="1.0" encoding="UTF-8"?>
<svg width="50px" height="50px" viewBox="0 0 50 50" version="1.1" xmlns="http://www.w3.org/2000/svg" xmlns:xlink="http://www.w3.org/1999/xlink">
    <!-- Generator: Sketch 52.2 (67145) - http://www.bohemiancoding.com/sketch -->
    <title>renyuanguanli</title>
    <desc>Created with Sketch.</desc>
    <defs>
        <linearGradient x1="18.3886719%" y1="14.5996094%" x2="78.2421875%" y2="84.7265625%" id="linearGradient-1">
            <stop stop-color="#FFFFFF" stop-opacity="0.5" offset="0%"></stop>
            <stop stop-color="#000000" offset="100%"></stop>
        </linearGradient>
        <circle id="path-2" cx="25" cy="25" r="25"></circle>
        <circle id="path-4" cx="25.3333333" cy="25.3333333" r="13.7222222"></circle>
        <linearGradient x1="100%" y1="50%" x2="0%" y2="50%" id="linearGradient-6">
            <stop stop-color="#FF6877" offset="0%"></stop>
            <stop stop-color="#FC494D" offset="100%"></stop>
        </linearGradient>
    </defs>
    <g id="Page-1" stroke="none" stroke-width="1" fill="none" fill-rule="evenodd">
        <g id="首页-" transform="translate(-1678.000000, -383.000000)">
            <g id="renyuanguanli" transform="translate(1678.000000, 383.000000)">
                <mask id="mask-3" fill="white">
                    <use xlink:href="#path-2"></use>
                </mask>
                <g id="Mask">
                    <use fill="#FEF4F5" xlink:href="#path-2"></use>
                    <use fill="url(#linearGradient-1)" style="mix-blend-mode: soft-light;" xlink:href="#path-2"></use>
                </g>
                <mask id="mask-5" fill="white">
                    <use xlink:href="#path-4"></use>
                </mask>
                <g id="Mask-Copy">
                    <use fill="#FEF4F5" xlink:href="#path-4"></use>
                    <use fill="url(#linearGradient-1)" style="mix-blend-mode: soft-light;" xlink:href="#path-4"></use>
                </g>
                <path d="M29.1355692,32.0272226 C29.0238104,30.9438038 29.0610512,30.1400618 29.0610512,29.126639 C29.5829317,28.8470647 31.4467543,27.1696187 31.5957902,25.771713 C32.005912,25.7368003 32.6769376,25.3523174 32.8632507,23.8146927 C32.975155,23.0109507 32.5650332,22.5217298 32.304093,22.3818743 C32.975155,20.4598009 33.273336,14.4489188 28.5764479,13.8548575 C28.0918082,13.0860623 26.8616249,12.6666667 25.2587426,12.6666667 C18.8470314,12.7714388 16.9459317,17.279643 18.3624281,22.416787 C18.1014878,22.5566424 17.6915117,23.0109507 17.8032704,23.8496395 C17.9896927,25.38723 18.6607547,25.771713 19.0707309,25.8066257 C19.219876,27.2394782 21.0837349,28.9169241 21.605579,29.1615516 C21.605579,30.1749744 21.6428562,30.9438038 21.5310975,32.0621352 C20.263637,35.2772058 10.9656773,34.85499 10.5555556,41.8792948 C15.2351852,44.8462024 20.4895062,46.3676934 26.3185185,46.443768 C29.1917916,46.4812671 33.7893225,44.959776 40.1111111,41.8792948 C39.8874116,34.7502179 30.4030297,35.2772058 29.1355692,32.0272226 Z" id="Fill-1" fill="url(#linearGradient-6)" mask="url(#mask-5)"></path>
            </g>
        </g>
    </g>
</svg>