<?xml version="1.0" encoding="UTF-8"?>
<svg width="50px" height="50px" viewBox="0 0 50 50" version="1.1" xmlns="http://www.w3.org/2000/svg" xmlns:xlink="http://www.w3.org/1999/xlink">
    <!-- Generator: Sketch 52.2 (67145) - http://www.bohemiancoding.com/sketch -->
    <title>zongqiandaorenshu</title>
    <desc>Created with Sketch.</desc>
    <g id="Page-1" stroke="none" stroke-width="1" fill="none" fill-rule="evenodd">
        <g id="活动管理-会员-活动概况-(会员)" transform="translate(-628.000000, -259.000000)">
            <g id="zongqiandaorenshu" transform="translate(628.000000, 259.000000)">
                <circle id="椭圆形-copy" fill="#FD585E" cx="25" cy="25" r="25"></circle>
                <g id="ic_list_views" transform="translate(15.000000, 15.000000)" fill-rule="nonzero">
                    <rect id="矩形" fill="#000000" opacity="0" x="0" y="0" width="20" height="20"></rect>
                    <g id="定位_line" transform="translate(2.000000, 1.000000)" fill="#FFFFFF">
                        <path d="M10.9740184,16.1354779 C10.6863003,16.3725289 10.2609036,16.3314384 10.0238526,16.0437203 C9.78682275,15.7560023 9.82789218,15.3305845 10.1156313,15.0935335 C13.2954644,12.4738859 14.8499646,10.1397203 14.8499646,8.13668371 C14.8499646,4.38774266 11.827153,1.34999678 8.09998068,1.34999678 C4.37280832,1.34999678 1.34999678,4.38774266 1.34999678,8.13668371 C1.34999678,10.5672053 3.63693351,13.47436 8.29328334,16.7742162 C8.59745449,16.9897727 8.66927854,17.4110772 8.45372202,17.7152273 C8.2381866,18.0193984 7.81688213,18.0912225 7.51273208,17.8756659 C2.53170802,14.3457619 0,11.1274117 0,8.13668371 C0,3.64364131 3.62573276,0 8.09998068,0 C12.5742286,0 16.1999614,3.64364131 16.1999614,8.13668371 C16.1999614,10.6336293 14.4343765,13.2847066 10.9740184,16.1354779 Z M8.09998068,11.2499661 C6.3602778,11.2499661 4.94999522,9.83964137 4.94999522,8.09995958 C4.94999522,6.3602778 6.3602778,4.94997413 8.09998068,4.94997413 C9.83968356,4.94997413 11.2499661,6.3602778 11.2499661,8.09995958 C11.2499661,9.83966246 9.83968356,11.2499661 8.09998068,11.2499661 Z M8.09998068,9.89996935 C9.09408455,9.89996935 9.89996935,9.09408455 9.89996935,8.09995958 C9.89996935,7.1058557 9.09408455,6.29997091 8.09998068,6.29997091 C7.1058768,6.29997091 6.299992,7.1058557 6.299992,8.09995958 C6.299992,9.09408455 7.1058768,9.89996935 8.09998068,9.89996935 Z" id="Shape"></path>
                    </g>
                </g>
            </g>
        </g>
    </g>
</svg>