<?xml version="1.0" encoding="UTF-8"?>
<svg width="49px" height="45px" viewBox="0 0 49 45" version="1.1" xmlns="http://www.w3.org/2000/svg" xmlns:xlink="http://www.w3.org/1999/xlink">
    <!-- Generator: Sketch 52.2 (67145) - http://www.bohemiancoding.com/sketch -->
    <title>logo</title>
    <desc>Created with Sketch.</desc>
    <defs>
        <polygon id="path-1" points="2.5128866e-05 0.0864514286 48.7193428 0.0864514286 48.7193428 44.4578313 2.5128866e-05 44.4578313"></polygon>
    </defs>
    <g id="Page-1" stroke="none" stroke-width="1" fill="none" fill-rule="evenodd">
        <g id="首页-" transform="translate(-24.000000, -9.000000)">
            <g id="导航">
                <g id="Group-16">
                    <g id="Group-12">
                        <g id="分组" transform="translate(24.000000, 9.000000)">
                            <path d="M24.375,17.3416215 C22.6291395,17.3416215 21.0023969,18.3298729 20.1293463,19.9210007 C19.2562958,21.5118752 19.2565364,23.4881248 20.1293463,25.0792525 C21.0023969,26.6701271 22.6291395,27.6583785 24.375,27.6583785 C26.1206199,27.6583785 27.7476031,26.6701271 28.6206537,25.0792525 C29.4934636,23.4881248 29.4934636,21.5118752 28.6206537,19.9210007 C27.7476031,18.3301261 26.1208605,17.3416215 24.375,17.3416215 M24.375,30 C21.8364634,30 19.4711894,28.5633261 18.2020414,26.2500633 C16.9326529,23.9368005 16.9326529,21.0631995 18.2020414,18.7499367 C19.4711894,16.4369271 21.8364634,15 24.375,15 C26.9135366,15 29.2788106,16.4369271 30.5479586,18.7499367 C31.8173471,21.0631995 31.8173471,23.9368005 30.5479586,26.2500633 C29.27857,28.5633261 26.9132959,30 24.375,30" id="Fill-1" fill="#FFF000"></path>
                            <g>
                                <mask id="mask-2" fill="white">
                                    <use xlink:href="#path-1"></use>
                                </mask>
                                <g id="Clip-4"></g>
                                <path d="M15.338308,2.43585728 C13.9155116,2.43585728 12.5894613,3.20967759 11.8780631,4.45551305 L2.85654897,20.2522697 C2.14540206,21.4983592 2.14540206,23.0459998 2.85654897,24.2918352 L11.8780631,40.0883378 C12.5894613,41.3344273 13.9155116,42.1085017 15.338308,42.1085017 L33.3810851,42.1085017 C34.8041327,42.1085017 36.1299317,41.3344273 36.8413299,40.0883378 L45.8625928,24.2918352 C46.573991,23.0459998 46.573991,21.4983592 45.8625928,20.2522697 L36.8413299,4.45551305 C36.1299317,3.20967759 34.8038814,2.43585728 33.3810851,2.43585728 L15.338308,2.43585728 Z M33.3810851,44.4579075 L15.338308,44.4579075 C13.0877668,44.4579075 10.9907629,43.2339199 9.86524098,41.2632948 L0.843978093,25.4665382 C-0.281292526,23.4961671 -0.281292526,21.0481919 0.843978093,19.0773127 L9.86524098,3.28081012 C10.9907629,1.31018499 13.0877668,0.0864514286 15.338308,0.0864514286 L33.3810851,0.0864514286 C35.6316263,0.0864514286 37.7288814,1.31043904 38.8541521,3.28081012 L47.8754149,19.0773127 C49.0006856,21.0481919 49.0006856,23.4961671 47.8754149,25.4665382 L38.8541521,41.2632948 C37.7288814,43.2339199 35.6316263,44.4579075 33.3810851,44.4579075 Z" id="Fill-3" fill="#E95515" mask="url(#mask-2)"></path>
                            </g>
                            <path d="M24.0001269,6.08685936 C22.7693348,6.08685936 21.5385426,6.4025948 20.441008,7.03381289 L12.6567363,11.5094702 C10.4614132,12.7719064 9.09761737,15.1243755 9.09761737,17.6492479 L9.09761737,26.6005625 C9.09761737,29.1254349 10.4614132,31.4781568 12.6567363,32.7403402 L20.4407542,37.2162503 C22.6360772,38.4786865 25.3639228,38.4789393 27.5594996,37.2162503 L35.3432637,32.7403402 C37.5388406,31.4781568 38.9026365,29.1254349 38.9026365,26.6005625 L38.9026365,17.6492479 C38.9026365,15.1243755 37.5388406,12.7719064 35.3432637,11.5094702 L27.5592458,7.03381289 C26.4617112,6.4025948 25.2309191,6.08685936 24.0001269,6.08685936 M24.0001269,40.5 C22.3632165,40.5 20.7268137,40.0806204 19.2670724,39.2411029 L11.4830545,34.7651928 C8.56357185,33.0866633 6.75,29.958127 6.75,26.6005625 L6.75,17.6492479 C6.75,14.2919362 8.56357185,11.1633999 11.4830545,9.48461761 L19.2670724,5.00870752 C22.1863012,3.33043083 25.8136988,3.33043083 28.7331814,5.00870752 L36.5171993,9.48461761 C39.4364281,11.1633999 41.25,14.2919362 41.25,17.6492479 L41.25,26.6005625 C41.25,29.958127 39.4364281,33.0866633 36.5169455,34.7651928 L28.7331814,39.2411029 C27.2736939,40.0803676 25.6365297,40.5 24.0001269,40.5" id="Fill-5" fill="#F29700"></path>
                            <path d="M22.8800295,12.0508444 C20.1118949,12.0508444 17.5326189,13.4985751 16.1486795,15.8292747 L14.653677,18.3465697 C13.2697377,20.6772693 13.2697377,23.5727307 14.653677,25.9031815 L16.1486795,28.4204765 C17.5326189,30.7514249 20.1121508,32.1991556 22.8800295,32.1991556 L25.8700345,32.1991556 C28.6379132,32.1991556 31.2171892,30.7514249 32.6013845,28.4204765 L34.096387,25.9031815 C35.4803263,23.5727307 35.4803263,20.6772693 34.096387,18.3465697 L32.6013845,15.8292747 C31.2171892,13.4985751 28.6379132,12.0508444 25.8700345,12.0508444 L22.8800295,12.0508444 Z M25.8700345,34.5 L22.8800295,34.5 C19.2691966,34.5 15.9045453,32.6114068 14.0991288,29.5711475 L12.6038704,27.0538525 C10.7987099,24.0133444 10.7987099,20.2364068 12.6038704,17.1961475 L14.0991288,14.6786037 C15.9042893,11.6383444 19.2691966,9.75 22.8800295,9.75 L25.8700345,9.75 C29.4808674,9.75 32.8455187,11.6383444 34.6509352,14.6786037 L36.1459377,17.1961475 C37.9513541,20.2364068 37.9513541,24.0133444 36.1459377,27.0538525 L34.6509352,29.5711475 C32.8455187,32.6114068 29.4808674,34.5 25.8700345,34.5 Z" id="Fill-7" fill="#F7B62D"></path>
                        </g>
                    </g>
                </g>
            </g>
        </g>
    </g>
</svg>